<svg width="50" height="50" viewBox="0 0 50 50" fill="none" xmlns="http://www.w3.org/2000/svg">
<path d="M18.75 9.375H15.625C14.7962 9.375 14.0013 9.70424 13.4153 10.2903C12.8292 10.8763 12.5 11.6712 12.5 12.5V37.5C12.5 38.3288 12.8292 39.1237 13.4153 39.7097C14.0013 40.2958 14.7962 40.625 15.625 40.625H18.75C19.5788 40.625 20.3737 40.2958 20.9597 39.7097C21.5458 39.1237 21.875 38.3288 21.875 37.5V12.5C21.875 11.6712 21.5458 10.8763 20.9597 10.2903C20.3737 9.70424 19.5788 9.375 18.75 9.375ZM34.375 9.375H31.25C30.4212 9.375 29.6263 9.70424 29.0403 10.2903C28.4542 10.8763 28.125 11.6712 28.125 12.5V37.5C28.125 38.3288 28.4542 39.1237 29.0403 39.7097C29.6263 40.2958 30.4212 40.625 31.25 40.625H34.375C35.2038 40.625 35.9987 40.2958 36.5847 39.7097C37.1708 39.1237 37.5 38.3288 37.5 37.5V12.5C37.5 11.6712 37.1708 10.8763 36.5847 10.2903C35.9987 9.70424 35.2038 9.375 34.375 9.375Z" fill="white"/>
</svg>
